<svg width="15" height="15" viewBox="0 0 15 15" fill="none" xmlns="http://www.w3.org/2000/svg">
<path fill-rule="evenodd" clip-rule="evenodd" d="M13.3857 1.72533C13.5024 1.78366 13.619 1.90033 13.6774 2.01699C13.7357 2.07533 13.7357 2.19199 13.7357 2.25033V5.75033C13.7357 6.10033 13.5024 6.33366 13.1524 6.33366C12.8024 6.33366 12.569 6.10033 12.569 5.75033V3.65033L7.14403 9.07533C7.02736 9.19199 6.9107 9.25033 6.7357 9.25033C6.5607 9.25033 6.44403 9.19199 6.32736 9.07533C6.09403 8.84199 6.09403 8.49199 6.32736 8.25866L11.7524 2.83366H9.65236C9.30236 2.83366 9.06903 2.60033 9.06903 2.25033C9.06903 1.90033 9.30236 1.66699 9.65236 1.66699H13.1524C13.2107 1.66699 13.3274 1.66699 13.3857 1.72533ZM11.9857 11.5837V8.08366C11.9857 7.73366 11.7524 7.50033 11.4024 7.50033C11.0524 7.50033 10.819 7.73366 10.819 8.08366V11.5837C10.819 11.9337 10.5857 12.167 10.2357 12.167H3.81903C3.46903 12.167 3.2357 11.9337 3.2357 11.5837V5.16699C3.2357 4.81699 3.46903 4.58366 3.81903 4.58366H7.31903C7.66903 4.58366 7.90236 4.35033 7.90236 4.00033C7.90236 3.65033 7.66903 3.41699 7.31903 3.41699H3.81903C2.82736 3.41699 2.06903 4.17533 2.06903 5.16699V11.5837C2.06903 12.5753 2.82736 13.3337 3.81903 13.3337H10.2357C11.2274 13.3337 11.9857 12.5753 11.9857 11.5837Z" fill="black"/>
<mask id="mask0_410_2171" style="mask-type:alpha" maskUnits="userSpaceOnUse" x="2" y="1" width="12" height="13">
<path fill-rule="evenodd" clip-rule="evenodd" d="M13.3857 1.72533C13.5024 1.78366 13.619 1.90033 13.6774 2.01699C13.7357 2.07533 13.7357 2.19199 13.7357 2.25033V5.75033C13.7357 6.10033 13.5024 6.33366 13.1524 6.33366C12.8024 6.33366 12.569 6.10033 12.569 5.75033V3.65033L7.14403 9.07533C7.02736 9.19199 6.9107 9.25033 6.7357 9.25033C6.5607 9.25033 6.44403 9.19199 6.32736 9.07533C6.09403 8.84199 6.09403 8.49199 6.32736 8.25866L11.7524 2.83366H9.65236C9.30236 2.83366 9.06903 2.60033 9.06903 2.25033C9.06903 1.90033 9.30236 1.66699 9.65236 1.66699H13.1524C13.2107 1.66699 13.3274 1.66699 13.3857 1.72533ZM11.9857 11.5837V8.08366C11.9857 7.73366 11.7524 7.50033 11.4024 7.50033C11.0524 7.50033 10.819 7.73366 10.819 8.08366V11.5837C10.819 11.9337 10.5857 12.167 10.2357 12.167H3.81903C3.46903 12.167 3.2357 11.9337 3.2357 11.5837V5.16699C3.2357 4.81699 3.46903 4.58366 3.81903 4.58366H7.31903C7.66903 4.58366 7.90236 4.35033 7.90236 4.00033C7.90236 3.65033 7.66903 3.41699 7.31903 3.41699H3.81903C2.82736 3.41699 2.06903 4.17533 2.06903 5.16699V11.5837C2.06903 12.5753 2.82736 13.3337 3.81903 13.3337H10.2357C11.2274 13.3337 11.9857 12.5753 11.9857 11.5837Z" fill="white"/>
</mask>
<g mask="url(#mask0_410_2171)">
<rect x="0.902344" y="0.5" width="14" height="14" fill="#2D9CDB"/>
</g>
</svg>
