<svg width="85" height="103" viewBox="0 0 85 103" fill="none" xmlns="http://www.w3.org/2000/svg">
<g id="Illustration">
<path id="Rectangle" fill-rule="evenodd" clip-rule="evenodd" d="M79 87.1114C79 73.795 68.205 63 54.8886 63L35 63V94C35 96.2091 36.7909 98 39 98H75C77.2091 98 79 96.2091 79 94L79 87.1114Z" fill="#DFDFDF"/>
<path id="Rectangle_2" fill-rule="evenodd" clip-rule="evenodd" d="M74 93L42 93V97H74V93Z" fill="#D1D1D1"/>
<path id="Path" fill-rule="evenodd" clip-rule="evenodd" d="M33.0686 98L31 103H41L39.2671 98H33.0686Z" fill="#DFDFDF"/>
<path id="Path_2" fill-rule="evenodd" clip-rule="evenodd" d="M66.0686 98L64 103H74L72.2671 98H66.0686Z" fill="#F1F1F1"/>
<path id="Path_3" fill-rule="evenodd" clip-rule="evenodd" d="M2.06864 98L0 103H10L8.26706 98H2.06864Z" fill="#DFDFDF"/>
<path id="Rectangle_3" fill-rule="evenodd" clip-rule="evenodd" d="M55 45.4119C55 34.8508 46.5587 26.2265 36 26V66H55L55 45.4119Z" fill="#DFDFDF"/>
<path id="Rectangle_4" fill-rule="evenodd" clip-rule="evenodd" d="M50 50.1114C50 36.795 39.205 26 25.8886 26H21.84C9.7781 26 0 35.7781 0 47.84V65.2528C0 66.2178 0.782249 67 1.7472 67H50L50 50.1114Z" fill="#F2F2F2"/>
<path id="Rectangle_5" fill-rule="evenodd" clip-rule="evenodd" d="M14 33.346C14 29.2889 10.7111 26 6.65399 26C2.97909 26 0 28.9791 0 32.654V61.2528C0 62.2178 0.782248 63 1.7472 63H14V33.346Z" fill="#DFDFDF"/>
<path id="Rectangle_6" fill-rule="evenodd" clip-rule="evenodd" d="M74 79.6C74 72.6412 68.3588 67 61.4 67H37V93H74L74 79.6Z" fill="#F2F2F2"/>
<g id="Wom1.4">
<g id="Head">
<path id="Path_4" fill-rule="evenodd" clip-rule="evenodd" d="M36.1712 23.1539C31.2687 22.0062 30.9459 15.2415 34.673 12.895C30.8292 4.7948 39.7181 -3.24764 45.8068 1.71226C49.7985 -0.00537169 53.1156 6.69719 49.4013 11.9028C50.9587 20.8411 47.7892 23.1515 42.0757 23.2497L36.1712 23.1539Z" fill="#33373E"/>
<path id="Path_5" fill-rule="evenodd" clip-rule="evenodd" d="M36.2321 21.5381C36.2321 21.5381 38.6169 20.9753 38.6996 17.0471C38.7824 13.1188 38.7243 11.7779 38.7243 11.7779L43.9773 11.6826C43.9773 11.6826 44.0345 16.0606 44.0354 17.6441C44.0375 21.8972 46.9855 21.5381 46.9855 21.5381C46.9855 21.5381 46.3727 24.9867 41.6128 25.2558C37.8965 25.4662 36.2321 21.5381 36.2321 21.5381Z" fill="#EDC2C2"/>
<path id="Path_6" fill-rule="evenodd" clip-rule="evenodd" d="M37.4998 9.81656C35.1565 9.7254 35.5387 13.174 37.973 13.1693C37.973 13.1693 39.3869 18.0683 44.2957 18.0683C48.2823 18.0683 48.5416 12.3585 48.5777 11.2194C48.6166 10.0049 48.6216 6.015 48.6216 6.015L37.4086 6.00977L37.4998 9.81656Z" fill="#FFD7D7"/>
<path id="Path_7" d="M43.3493 14.777C43.3493 14.777 44.5185 15.7723 45.8726 14.8404" stroke="#F77B7B" stroke-width="1.5" stroke-linecap="round"/>
<path id="Path_8" d="M44.121 15.9297C44.4848 16.0985 44.835 16.1107 45.1477 15.9425" stroke="#F49494" stroke-linecap="round"/>
<path id="Path 8" d="M37.7386 11.6715C37.7627 11.1183 37.5949 10.679 37.0336 10.5907" stroke="#F77B7B" stroke-linecap="round"/>
<path id="Path_9" fill-rule="evenodd" clip-rule="evenodd" d="M37.129 9.39058C37.129 9.39058 38.4135 11.1232 38.6736 11.1324C38.9338 11.1416 39.0249 8.87906 39.0249 8.87906C40.6005 8.75805 44.588 7.95981 45.5655 6.1002C46.249 7.74101 47.5557 8.46983 48.4143 8.32988L48.577 11.8158L48.9777 4.80762H36.8149L37.129 9.39058Z" fill="#33373E"/>
</g>
<g id="LLeg">
<path id="Path_10" fill-rule="evenodd" clip-rule="evenodd" d="M60.2332 90.8112C60.2332 90.8112 58.1309 95.0796 59.8543 96.4247C61.5803 97.77 66.1393 100.291 66.1393 100.291L54.0609 99.5281L56.7458 90.2188L60.2332 90.8112Z" fill="#FFD7D7"/>
<path id="Path_11" fill-rule="evenodd" clip-rule="evenodd" d="M55.2292 94.8731C55.8253 94.9432 55.1887 96.9606 56.4793 97.1141C57.7673 97.2672 58.3933 95.3559 59.8549 95.9618C61.3166 96.5678 66.6472 99.7006 66.8571 100.981C67.0696 102.262 65.0835 102.639 62.3598 102.349C59.6361 102.06 59.1341 101.086 57.0894 101.478C55.0472 101.871 53.5174 101.246 53.5848 99.7454C53.6522 98.2456 54.6332 94.8033 55.2292 94.8731Z" fill="#2B2E35"/>
<path id="Path 14" fill-rule="evenodd" clip-rule="evenodd" d="M60.5216 96.2725C60.2482 96.6846 60.3828 97.2422 60.8142 97.4842L63.7182 99.1133C64.0098 99.2769 64.3639 99.2839 64.6618 99.132L64.9353 98.9925C64.0568 98.3529 63.3384 97.8723 62.5445 97.4004C61.9351 97.0381 61.2604 96.6646 60.5216 96.2725Z" fill="white" fill-opacity="0.540975"/>
<path id="Path_12" fill-rule="evenodd" clip-rule="evenodd" d="M42.0383 53.1904C45.695 53.3545 66.047 57.8797 69.7446 58.6485C73.4422 59.4173 76.5683 63.5773 73.7487 68.3944C70.5818 73.8019 62.4107 89.1589 60.4268 92.6207C59.4449 94.3342 54.4912 93.3735 55.6548 90.4976C57.824 85.1363 58.8313 71.6684 64.3617 66.7577C64.3617 66.7577 45.7632 70.0117 37.7294 66.2844C31.8906 63.5749 33.2115 52.7936 42.0383 53.1904Z" fill="#33373E"/>
</g>
<g id="LArm">
<path id="Path_13" fill-rule="evenodd" clip-rule="evenodd" d="M67.9474 31.4532C67.9474 31.4532 67.9061 28.4621 68.9469 26.899C69.9876 25.3359 70.0289 23.6755 70.8166 23.7298C71.6043 23.7842 70.8244 27.6435 70.8244 27.6435C70.8244 27.6435 71.8238 27.2597 72.5418 26.7742C73.2597 26.2887 75.4368 23.8952 75.9455 24.3193C76.8081 25.042 75.4187 29.1185 74.662 29.9334C73.9027 30.7487 69.7552 33.4295 69.7552 33.4295L67.9474 31.4532Z" fill="#FFD7D7"/>
<path id="Path_14" fill-rule="evenodd" clip-rule="evenodd" d="M45.476 29.6612C47.177 33.6273 50.2916 40.9132 51.5756 43.087C53.1847 45.8092 55.722 47.0086 58.6929 44.9888C61.8145 42.8665 70.41 34.5888 70.6621 32.7137C70.9119 30.8386 68.808 28.5889 66.9044 29.7537C65.0008 30.9184 57.0908 37.5359 57.0908 37.5359C57.0908 37.5359 53.8985 29.3095 51.3305 24.544C49.1065 20.4211 42.8868 23.6317 45.476 29.6612Z" fill="#05B1F3"/>
<path id="Path_15" fill-rule="evenodd" clip-rule="evenodd" d="M57.1238 37.5404C57.1238 37.5404 57.9812 40.4639 58.1817 40.2946C58.3821 40.1254 58.0285 36.7764 58.0285 36.7764L57.1238 37.5404Z" fill="black" fill-opacity="0.302803"/>
</g>
<g id="PhoneMini4">
<g id="Group 3">
<path id="Rectangle_7" d="M78.3686 25.2913C78.7782 24.0307 78.0883 22.6767 76.8277 22.2671L74.9897 21.67C73.7291 21.2604 72.3752 21.9502 71.9656 23.2109L69.2659 31.5195C68.8563 32.7801 69.5462 34.1341 70.8068 34.5437L72.6448 35.1409C73.9054 35.5505 75.2593 34.8606 75.6689 33.6L78.3686 25.2913Z" fill="#05B1F3"/>
<rect id="Rectangle_8" width="6.73254" height="13.5363" rx="2.4" transform="matrix(-0.951057 -0.309017 -0.309017 0.951057 78.6829 22.6836)" fill="#93C2F9"/>
<path id="Rectangle_9" d="M77.3891 22.7714L76.9034 22.6136C76.8045 22.5814 76.6989 22.6264 76.6512 22.7153L76.6361 22.7507C76.5997 22.8626 76.48 22.924 76.3687 22.8878L74.0271 22.127C73.9282 22.0948 73.8692 21.9964 73.8828 21.8964L73.8914 21.8589C73.9278 21.747 73.867 21.627 73.7557 21.5908L73.2726 21.4338C72.9136 21.3172 72.529 21.4994 72.3856 21.8436L72.3648 21.8999L68.9725 32.3718C68.8252 32.8289 69.0734 33.3187 69.5276 33.4671L73.3694 34.7154C73.8041 34.8574 74.2703 34.6341 74.44 34.2144L74.4613 34.156C74.4614 34.1558 74.4615 34.1555 74.4608 34.155L77.8524 23.6856C77.976 23.3039 77.7686 22.8947 77.3891 22.7714Z" fill="#E6F3FF"/>
</g>
</g>
<g id="Body">
<path id="Path_16" fill-rule="evenodd" clip-rule="evenodd" d="M28.4766 24.8816C28.4766 24.8816 32.5757 38.6799 32.6971 41.2918C32.8185 43.904 29.3444 51.581 29.9359 53.5215C31.2997 58.0055 48.7113 59.9364 49.3765 53.9042C49.6867 51.091 49.0411 48.5661 49.785 45.2513C50.5263 41.9365 53.506 37.0107 51.816 32.3795C50.1259 27.7484 50.5787 23.4638 49.3699 22.654C48.1611 21.8442 45.3354 20.9842 45.3354 20.9842C43.9613 23.017 39.3223 22.9874 37.1087 20.8408C37.1087 20.8408 31.6097 21.9132 28.4766 24.8816Z" fill="#05B1F3"/>
<path id="Path_17" fill-rule="evenodd" clip-rule="evenodd" d="M32.1499 27.1162C34.8823 31.4753 34.8741 39.065 36.3415 40.059C37.809 41.053 43.5206 40.0775 43.5206 40.8647C43.5206 41.6519 35.6276 48.8659 36.9233 52.3145C37.6018 54.1203 37.4177 55.7358 36.3712 57.161L36.0296 57.0861C32.9196 56.3796 30.4194 55.1108 29.9359 53.5212C29.3444 51.5808 33.2192 43.9037 33.0978 41.2916C32.9948 39.0744 29.7367 28.7966 28.7543 25.7406C29.5541 24.322 30.6858 24.7804 32.1499 27.1162Z" fill="black" fill-opacity="0.199355"/>
</g>
<g id="RArm">
<path id="Path_18" fill-rule="evenodd" clip-rule="evenodd" d="M36.8092 38.6819C36.8092 38.6819 40.2619 35.6099 41.3188 35.2534C42.3757 34.8969 48.566 34.4687 48.5268 35.2742C48.4825 36.1373 45.1577 36.0876 44.8132 36.5122C44.4687 36.9366 44.3904 39.8385 43.0882 40.1643C41.7885 40.4901 37.8922 41.0518 37.8922 41.0518L36.8092 38.6819Z" fill="#FFD7D7"/>
<path id="Path_19" fill-rule="evenodd" clip-rule="evenodd" d="M27.6238 25.6749C23.9862 30.8359 20.8805 38.6974 19.6884 41.7623C18.4963 44.8273 19.6988 49.4502 24.9408 48.5426C30.1734 47.6374 38.4988 42.719 39.42 41.2842C40.3412 39.8494 38.9418 37.2387 37.1795 37.5804C35.5468 37.8966 27.4484 41.3583 27.4484 41.3583C27.4484 41.3583 32.6584 32.0746 33.9306 29.5859C36.0557 25.4296 30.8279 21.1276 27.6238 25.6749Z" fill="#05B1F3"/>
<path id="Path_20" fill-rule="evenodd" clip-rule="evenodd" d="M27.5309 41.2952C27.5309 41.2952 24.8021 42.6581 25.1349 42.0865C25.4677 41.5149 28.5722 39.5068 28.5722 39.5068L27.5309 41.2952Z" fill="black" fill-opacity="0.302803"/>
</g>
<g id="RLeg">
<path id="Path_21" fill-rule="evenodd" clip-rule="evenodd" d="M72.9344 90.9834C72.9344 90.9834 72.871 96.0073 76.9889 97.8857C81.1043 99.7639 84.0364 99.6508 83.6632 101.103C83.29 102.555 72.5781 102.496 71.5778 101.361C70.7251 100.395 68.8711 91.3989 68.3605 92.0867L72.9344 90.9834Z" fill="#FFD7D7"/>
<path id="Path_22" fill-rule="evenodd" clip-rule="evenodd" d="M69.6763 96.6063C70.1361 95.7131 70.165 98.2258 71.9789 97.6721C73.4509 97.2227 73.9541 94.6507 74.8842 95.214C75.8144 95.7773 84.002 100.145 84.0486 100.171C85.0567 100.717 84.775 102.371 83.0723 102.66C81.1805 102.98 71.3779 102.764 70.8518 102.257C70.3258 101.75 69.3075 97.3225 69.6763 96.6063Z" fill="#2B2E35"/>
<path id="Path 14_2" fill-rule="evenodd" clip-rule="evenodd" d="M76.0954 96.7168C76.0866 96.7168 76.0779 96.7174 76.0692 96.7186C75.5346 96.7906 75.9008 97.6301 76.3992 97.8364L79.7585 99.2269C80.0994 99.368 80.7752 99.3058 80.6164 98.9727C80.5365 98.8052 76.4038 96.7168 76.0954 96.7168Z" fill="white" fill-opacity="0.540975"/>
<path id="Path_23" fill-rule="evenodd" clip-rule="evenodd" d="M30.1801 51.6377C30.1801 51.6377 24.8639 62.9241 32.3348 66.7997C39.5598 70.5476 61.1889 66.1148 61.1889 66.1148C61.1889 66.1148 60.8024 69.243 61.1889 72.0329C62.1983 79.3195 66.999 91.4594 68.0147 92.9849C69.4194 95.0943 73.6981 93.5035 73.7787 91.747C73.8593 89.9905 70.5532 67.5576 70.0504 63.2798C69.5502 59.0017 67.9712 58.3803 63.359 57.2108C62.2995 56.9422 49.7694 53.8118 48.6216 53.903C38.7588 54.687 30.1801 51.6377 30.1801 51.6377Z" fill="#42474F"/>
<path id="Path_24" fill-rule="evenodd" clip-rule="evenodd" d="M36.0077 65.6345C43.1607 66.4403 62.0978 64.7794 62.8584 65.5341C63.5845 66.2546 63.4634 78.79 65.0922 86.0454L64.8445 85.3602C63.3126 81.083 61.722 75.8809 61.1889 72.0326C60.8024 69.2426 61.1889 66.1145 61.1889 66.1145L60.3168 66.2842C56.2053 67.0605 38.6928 70.0975 32.3348 66.7993C28.8899 65.0122 27.4841 62.0433 28.1175 57.8926C29.2081 62.5841 31.8382 65.1649 36.0077 65.6345Z" fill="#52565E"/>
</g>
</g>
<path id="Rectangle_10" fill-rule="evenodd" clip-rule="evenodd" d="M44 87.1114C44 73.795 33.205 63 19.8886 63L0 63V96.2528C0 97.2178 0.782249 98 1.7472 98H44L44 87.1114Z" fill="#DFDFDF"/>
</g>
</svg>
